<svg width="69" height="69" viewBox="0 0 69 69" fill="none" xmlns="http://www.w3.org/2000/svg">
<path d="M12.8086 24.1399H15.0286V49.1399H12.8086V24.1399Z" fill="black" stroke="black" stroke-miterlimit="10"/>
<path d="M47.3386 24.1399C47.8541 24.1342 48.3654 24.2332 48.8415 24.4309C49.3176 24.6285 49.7487 24.9208 50.1086 25.2899C50.4806 25.6476 50.7747 26.0783 50.9725 26.5549C51.1704 27.0316 51.2678 27.5439 51.2585 28.0599V28.2799C51.2991 28.876 51.218 29.4741 51.0203 30.038C50.8226 30.6018 50.5125 31.1196 50.1086 31.5599C49.7487 31.9325 49.3165 32.2276 48.8384 32.4271C48.3604 32.6266 47.8465 32.7262 47.3286 32.7199H22.5586V24.1399H47.3386ZM58.9586 47.8199L52.8586 39.6599H22.5586V48.4299H24.7086V41.7499H51.7986L57.2186 49.1299L58.9586 47.8199ZM24.7086 26.2899V30.5699H47.3286C47.5602 30.5751 47.7903 30.5315 48.004 30.4419C48.2176 30.3524 48.4099 30.2188 48.5685 30.0499C48.7727 29.8062 48.9257 29.5239 49.0184 29.2198C49.1112 28.9157 49.1419 28.5961 49.1086 28.2799V28.0599C49.1138 27.8283 49.0702 27.5982 48.9806 27.3845C48.891 27.1709 48.7574 26.9785 48.5886 26.8199C48.4282 26.6499 48.2343 26.5151 48.0191 26.4238C47.804 26.3326 47.5722 26.287 47.3386 26.2899H24.7086Z" fill="black" stroke="black" stroke-miterlimit="10"/>
<path d="M34.45 66.9C52.3716 66.9 66.9 52.3717 66.9 34.45C66.9 16.5284 52.3716 2 34.45 2C16.5283 2 2 16.5284 2 34.45C2 52.3717 16.5283 66.9 34.45 66.9Z" stroke="#231F20" stroke-width="4" stroke-miterlimit="10"/>
</svg>
