<svg width="281" height="63" viewBox="0 0 281 63" fill="none" xmlns="http://www.w3.org/2000/svg">
<path d="M39.5888 27.3135C38.4037 31.0971 36.6249 34.6684 34.3188 37.8936C32.0249 41.2617 28.8444 43.93 25.1288 45.6035C21.2434 47.1693 16.9352 47.339 12.9388 46.0836C10.8995 45.4605 9.00323 44.4411 7.35879 43.0836C5.7404 41.7164 4.36734 40.0829 3.29879 38.2535C0.0902226 32.7062 -0.822043 26.1242 0.756833 19.9133C2.33571 13.7024 6.28056 8.35513 11.7488 5.01356C15.321 2.83056 19.2852 1.36648 23.4188 0.703557C27.451 0.0554585 31.5424 -0.145765 35.6188 0.103551C37.6188 0.273551 39.6188 0.403566 41.6188 0.743566C43.639 0.994283 45.6426 1.36492 47.6188 1.85355C55.4788 3.85355 62.8088 6.92356 70.0388 10.1136C84.4488 16.5936 98.3888 23.8235 112.549 30.5635C126.709 37.3035 140.969 43.7636 155.679 48.9836C170.389 54.2036 185.569 58.2136 201.059 59.3336C208.781 59.9151 216.545 59.6132 224.199 58.4335C228.013 57.8015 231.782 56.9162 235.479 55.7835C239.158 54.5876 242.747 53.1305 246.219 51.4236C249.693 49.6994 253.036 47.7207 256.219 45.5035L257.419 44.6835L258.579 43.7936L260.889 42.0136L263.109 40.1235C263.859 39.4935 264.589 38.8535 265.279 38.1235L267.399 36.1235C268.099 35.4435 268.759 34.7236 269.399 34.0236C270.789 32.6436 272.049 31.1536 273.329 29.6736C273.989 28.9436 274.599 28.1835 275.199 27.4035L277.019 25.0935C278.199 23.5335 279.329 21.9235 280.489 20.3435C276.463 27.1296 271.646 33.4137 266.139 39.0635C265.459 39.7935 264.739 40.4735 264.009 41.1335L261.829 43.1335L259.539 45.0335L258.399 45.9836L257.199 46.8735L254.819 48.6635L252.329 50.3036C251.509 50.8736 250.649 51.3736 249.779 51.8636C248.909 52.3536 248.069 52.8636 247.179 53.3336C243.63 55.1738 239.954 56.7579 236.179 58.0736C232.394 59.3317 228.528 60.3339 224.609 61.0736C216.761 62.4695 208.772 62.9027 200.819 62.3636C184.909 61.3636 169.409 57.4236 154.479 52.3036C139.599 47.0516 125.031 40.9516 110.849 34.0335C96.6188 27.2935 82.6388 20.0836 68.3888 13.7036C61.2588 10.5736 54.0288 7.56356 46.6388 5.70356C44.7927 5.25177 42.9232 4.90123 41.0388 4.65354C39.1488 4.32354 37.2488 4.20354 35.3488 4.03354C31.5815 3.78641 27.7984 3.95746 24.0688 4.54355C20.4505 5.14097 16.9748 6.4058 13.8188 8.27356C10.6958 10.1214 8.0942 12.7333 6.2588 15.8636C4.43573 19.0472 3.43774 22.6361 3.35565 26.3038C3.27356 29.9716 4.10999 33.6016 5.7888 36.8636C6.6322 38.4711 7.74498 39.9221 9.07879 41.1535C10.4164 42.3637 11.9796 43.2982 13.6788 43.9035C17.1891 45.1902 21.0323 45.2466 24.5788 44.0635C28.1473 42.6776 31.2769 40.3563 33.6388 37.3435C36.1089 34.314 38.1143 30.9336 39.5888 27.3135Z" fill="#FFA500"/>
<path d="M38.2578 27.3135H40.4778V52.3135H38.2578V27.3135Z" fill="white"/>
<path d="M170.219 35.8535V52.3035H168.159V39.1035L152.639 46.3635L137.119 39.1035V52.3035H135.059V35.8535L152.639 44.0835L170.219 35.8535ZM169.629 29.1835L152.629 37.1335L135.629 29.1835L136.499 27.3135L152.609 34.8535L168.719 27.3135L169.629 29.1835Z" fill="white"/>
<path d="M212.918 35.8535V52.3035H210.818V39.1035L195.308 46.3635L179.818 39.1035V52.3035H177.748V35.8535L195.338 44.0835L212.918 35.8535ZM212.318 29.1835L195.318 37.1335L178.318 29.1835L179.188 27.3135L195.308 34.8535L211.408 27.3135L212.318 29.1835Z" fill="white"/>
<path d="M115.068 27.3135C118.372 27.3135 121.542 28.6262 123.878 30.9629C126.215 33.2996 127.528 36.4689 127.528 39.7735V39.8435C127.528 43.1481 126.215 46.3173 123.878 48.654C121.542 50.9907 118.372 52.3035 115.068 52.3035H104.388C101.083 52.3035 97.9139 50.9907 95.5772 48.654C93.2405 46.3173 91.9277 43.1481 91.9277 39.8435V39.7735C91.9277 36.4689 93.2405 33.2996 95.5772 30.9629C97.9139 28.6262 101.083 27.3135 104.388 27.3135H115.068ZM104.388 29.5335C101.672 29.5335 99.0673 30.6123 97.147 32.5327C95.2266 34.4531 94.1477 37.0577 94.1477 39.7735V39.8435C94.1477 42.5593 95.2266 45.1639 97.147 47.0843C99.0673 49.0046 101.672 50.0835 104.388 50.0835H115.068C117.784 50.0835 120.388 49.0046 122.309 47.0843C124.229 45.1639 125.308 42.5593 125.308 39.8435V39.7735C125.308 37.0577 124.229 34.4531 122.309 32.5327C120.388 30.6123 117.784 29.5335 115.068 29.5335H104.388Z" fill="white"/>
<path d="M72.8178 27.3136C73.3331 27.3096 73.8438 27.4094 74.3197 27.607C74.7956 27.8046 75.2269 28.0959 75.5878 28.4636C75.9565 28.8233 76.2479 29.2545 76.4439 29.7309C76.6399 30.2072 76.7366 30.7186 76.7278 31.2336V31.4536C76.7673 32.0488 76.6868 32.6459 76.491 33.2094C76.2951 33.7728 75.988 34.2912 75.5878 34.7336C75.2261 35.1065 74.7921 35.4017 74.3124 35.6012C73.8327 35.8006 73.3173 35.9001 72.7978 35.8936H48.0078V27.3136H72.8178ZM84.4278 50.9936L78.3278 42.8336H48.0078V51.6036H50.1478V44.9236H77.2378L82.6878 52.2536L84.4278 50.9936ZM50.1778 29.4636V33.7436H72.8178C73.0508 33.7484 73.2823 33.7046 73.4975 33.6151C73.7127 33.5256 73.9069 33.3922 74.0678 33.2236C74.2719 32.9799 74.4249 32.6976 74.5177 32.3935C74.6105 32.0894 74.6411 31.7698 74.6078 31.4536V31.2336C74.5976 30.7674 74.4079 30.3231 74.0781 29.9933C73.7484 29.6636 73.304 29.4738 72.8378 29.4636H50.1778Z" fill="white"/>
<path d="M256.019 29.0735L239.309 40.8135V52.3035H237.159V40.8135L220.439 29.0735L221.679 27.3135L238.229 38.9435L254.819 27.3135L256.019 29.0735Z" fill="white"/>
</svg>
