<svg width="160" height="123" viewBox="0 0 160 123" fill="none" xmlns="http://www.w3.org/2000/svg">
<path d="M4.44 113.04C4.44 113.56 4.88 114 5.4 114C5.96 114 6.4 113.56 6.4 113.04V86.96C6.4 86.44 5.96 86 5.4 86C4.88 86 4.44 86.44 4.44 86.96V113.04ZM31.0275 112.28C31.4675 113.16 32.3075 113.56 32.8275 113.56H32.9075C33.1475 113.56 33.3475 113.52 33.3875 113.52C33.9075 113.32 34.1475 112.76 34.0275 112.24C33.8675 111.8 33.3875 111.56 32.9475 111.6C32.9075 111.56 32.7075 111.4 32.5475 110.92C32.3475 110.32 32.1875 109.32 32.1875 107.68C32.1875 104.52 30.2675 102.48 28.4275 101.44C28.2675 101.36 28.1475 101.32 28.0275 101.24C30.7475 99.96 32.6275 97.2 32.6275 94C32.6275 89.56 29.0675 86 24.6675 86H16.8675H16.7475H16.6675C16.1875 86.04 15.7875 86.48 15.7875 86.96V113.04C15.7875 113.56 16.2275 114 16.7475 114C17.3075 114 17.7475 113.56 17.7475 113.04V101.96H24.5475C24.5875 101.96 24.6275 102 24.7475 102.04C25.2675 102.12 26.7475 102.56 27.9875 103.44C29.2275 104.36 30.2675 105.64 30.2675 107.68C30.2675 110.04 30.5475 111.36 31.0275 112.28ZM30.7075 94C30.7075 97.28 28.0675 99.96 24.8275 100.04H24.4675H17.7475V87.96H24.6675C27.9875 87.96 30.7075 90.64 30.7075 94ZM39.4434 99.8C39.4834 107.64 45.4034 114 52.9634 114C60.4434 114 66.3234 107.64 66.3634 99.8C66.3234 91.96 60.4434 85.6 52.9634 85.6C45.4034 85.6 39.4834 91.96 39.4434 99.8ZM41.4034 99.8C41.4034 92.88 46.6034 87.6 52.9634 87.6C59.1234 87.6 64.3234 92.88 64.3634 99.8C64.3234 106.64 59.1234 112.04 52.9634 112.04C46.6034 112.04 41.4034 106.64 41.4034 99.8ZM94.6663 113.04C94.6663 113.56 95.0663 114 95.6263 114C96.1463 114 96.5863 113.56 96.5863 113.04V87.12C96.5863 86.96 96.5063 86.76 96.4263 86.6C96.3463 86.48 96.2663 86.4 96.1463 86.28C95.7063 86 95.0663 86.08 94.7863 86.52L84.8663 100.32L74.9063 86.52C74.5863 86.08 73.9863 86 73.5463 86.28C73.5063 86.32 73.4663 86.32 73.4663 86.36C73.2263 86.52 73.0663 86.8 73.0663 87.12V113.04C73.0663 113.56 73.5063 114 74.0663 114C74.5863 114 75.0263 113.56 75.0263 113.04V90.04L83.9863 102.44C84.1863 102.76 84.4663 102.88 84.8263 102.88H84.9063C85.1863 102.88 85.5063 102.76 85.7063 102.44L94.6663 90V113.04ZM127.127 113.04C127.127 113.56 127.527 114 128.087 114C128.607 114 129.047 113.56 129.047 113.04V87.12C129.047 86.96 128.967 86.76 128.887 86.6C128.807 86.48 128.727 86.4 128.607 86.28C128.167 86 127.527 86.08 127.247 86.52L117.327 100.32L107.367 86.52C107.047 86.08 106.447 86 106.007 86.28C105.967 86.32 105.927 86.32 105.927 86.36C105.687 86.52 105.527 86.8 105.527 87.12V113.04C105.527 113.56 105.967 114 106.527 114C107.047 114 107.487 113.56 107.487 113.04V90.04L116.447 102.44C116.647 102.76 116.927 102.88 117.287 102.88H117.367C117.647 102.88 117.967 102.76 118.167 102.44L127.127 90V113.04ZM146.957 113.04C146.957 113.56 147.397 114 147.917 114C148.477 114 148.877 113.56 148.877 113.04V100.48L158.237 87.72C158.557 87.28 158.477 86.64 158.037 86.36C157.597 86 156.957 86.08 156.677 86.52L147.877 98.56L139.117 86.52C138.837 86.08 138.197 86 137.757 86.36C137.357 86.64 137.277 87.28 137.557 87.72L146.957 100.56V113.04Z" fill="white"/>
<path d="M62.9597 19.35C62.9597 18.75 63.2697 18.45 63.8897 18.45H65.4797C65.7597 18.45 65.9897 18.53 66.1697 18.69C66.3497 18.85 66.4397 19.07 66.4397 19.35V62.1C66.4397 62.7 66.1197 63 65.4797 63H63.8897C63.2697 63 62.9597 62.7 62.9597 62.1V19.35ZM76.1948 43.86C76.1948 43.58 76.2748 43.35 76.4348 43.17C76.6148 42.97 76.8548 42.87 77.1548 42.87H90.0248L75.9548 19.71C75.8348 19.61 75.7548 19.45 75.7148 19.23C75.7148 19.03 75.7648 18.86 75.8648 18.72C75.9848 18.58 76.1848 18.49 76.4648 18.45H93.8048C95.7248 18.45 97.5248 18.82 99.2048 19.56C100.885 20.3 102.345 21.31 103.585 22.59C104.825 23.87 105.805 25.36 106.525 27.06C107.245 28.74 107.605 30.53 107.605 32.43C107.605 34.09 107.315 35.68 106.735 37.2C106.155 38.7 105.345 40.06 104.305 41.28C103.285 42.5 102.075 43.53 100.675 44.37C99.2748 45.21 97.7548 45.78 96.1148 46.08C97.7348 48.76 99.3448 51.42 100.945 54.06C102.545 56.7 104.155 59.36 105.775 62.04C105.815 62.16 105.855 62.27 105.895 62.37C105.935 62.45 105.955 62.52 105.955 62.58C105.955 62.68 105.875 62.78 105.715 62.88C105.575 62.96 105.385 63 105.145 63C104.725 63 104.305 63 103.885 63C103.465 63 103.045 62.99 102.625 62.97C102.465 62.95 102.305 62.87 102.145 62.73C102.005 62.57 101.865 62.39 101.725 62.19C101.585 61.99 101.455 61.78 101.335 61.56C101.215 61.32 101.095 61.11 100.975 60.93C99.4748 58.47 97.9848 56.03 96.5048 53.61C95.0448 51.19 93.5748 48.75 92.0948 46.29H79.6148V62.1C79.6148 62.7 79.3148 63 78.7148 63H77.1248C76.5048 63 76.1948 62.7 76.1948 62.1V43.86ZM104.125 32.4C104.125 31 103.855 29.66 103.315 28.38C102.795 27.1 102.065 25.98 101.125 25.02C100.205 24.04 99.1148 23.27 97.8548 22.71C96.5948 22.13 95.2448 21.84 93.8048 21.84H81.4748C83.5948 25.38 85.7048 28.89 87.8048 32.37C89.9248 35.85 92.0548 39.35 94.1948 42.87C95.5748 42.81 96.8648 42.49 98.0648 41.91C99.2848 41.31 100.335 40.54 101.215 39.6C102.115 38.64 102.825 37.54 103.345 36.3C103.865 35.06 104.125 33.76 104.125 32.4Z" fill="white"/>
<path d="M83.4298 67.87C101.611 67.87 116.35 53.1312 116.35 34.95C116.35 16.7688 101.611 2.03003 83.4298 2.03003C65.2486 2.03003 50.5098 16.7688 50.5098 34.95C50.5098 53.1312 65.2486 67.87 83.4298 67.87Z" stroke="white" stroke-width="3" stroke-miterlimit="10"/>
</svg>
