<svg width="72" height="30" viewBox="0 0 72 30" fill="none" xmlns="http://www.w3.org/2000/svg">
<path d="M16.9888 7.82431H30.5687V8.56985H18.2339V14.1804H29.8331V14.9259H18.2339V21.0858H30.7101V21.8313H16.9888V7.82431ZM31.7851 7.82431H33.2282L39.6221 13.9842L46.1573 7.82431L55.0463 0L40.4426 14.6316L47.968 21.8313H46.4684L39.6221 15.279L32.7475 21.8313H31.2761L38.8581 14.6316L31.7856 7.82431H31.7851ZM48.5057 8.56985V7.82431H63.9807V8.56985H56.8517V21.831H55.6065V8.56985H48.5062H48.5057ZM0 7.82431H1.55618L23.0126 30L14.1455 21.8313L1.3012 8.88365L1.24465 21.8313H0V7.82431ZM63.8559 20.8607C63.6009 20.8607 63.4103 20.7246 63.4103 20.5489C63.4103 20.3728 63.6009 20.2368 63.8554 20.2368C64.1128 20.2368 64.3005 20.3728 64.3005 20.5489C64.3005 20.7246 64.1128 20.8607 63.8554 20.8607H63.8559ZM65.0786 20.0399H65.7451C65.7543 20.2892 66.0181 20.4565 66.4052 20.4565C66.8381 20.4565 67.0833 20.2767 67.0833 19.9394V17.8039H67.7615V19.9414C67.7615 20.5489 67.253 20.8986 66.411 20.8986C65.6212 20.8986 65.0791 20.5593 65.0791 20.0399H65.0786ZM68.6483 20.013H69.3206C69.3781 20.2996 69.7837 20.4817 70.3683 20.4817C70.9128 20.4817 71.3126 20.2868 71.3126 20.019C71.3126 19.7889 71.0586 19.6505 70.4799 19.5564L69.9168 19.4623C69.127 19.3346 68.7663 19.0706 68.7663 18.6267C68.7663 18.0885 69.402 17.7303 70.3556 17.7303C71.2429 17.7303 71.8913 18.0885 71.9303 18.5972H71.2702C71.2068 18.319 70.8558 18.1449 70.3468 18.1449C69.8105 18.1449 69.4537 18.323 69.4537 18.5952C69.4537 18.8109 69.6838 18.9345 70.2532 19.0266L70.7344 19.1082C71.6305 19.2527 72 19.504 72 19.9582C72 20.5361 71.3516 20.8986 70.3166 20.8986C69.3479 20.8986 68.6965 20.5529 68.6483 20.0127V20.013Z" fill="white"/>
</svg>
